<svg viewBox="-28 0 512 512.00081" xmlns="http://www.w3.org/2000/svg" xmlns:xlink="http://www.w3.org/1999/xlink"><linearGradient id="a"><stop offset="0" stop-color="#ffb92d"/><stop offset="1" stop-color="#f59500"/></linearGradient><linearGradient id="b" gradientUnits="userSpaceOnUse" x1="113.41990464" x2="132.40001616" xlink:href="#a" y1="344.41885008" y2="423.66026352"/><linearGradient id="c"><stop offset="0" stop-color="#be3f45" stop-opacity="0"/><stop offset="1" stop-color="#be3f45"/></linearGradient><linearGradient id="d" gradientUnits="userSpaceOnUse" x1="195.9100032" x2="71.90279304" xlink:href="#c" y1="344.08052904" y2="371.97444624"/><linearGradient id="e" gradientUnits="userSpaceOnUse" x1="133.24330896" x2="-191.77579104" xlink:href="#c" y1="349.47659904" y2="422.58406128"/><linearGradient id="f"><stop offset="0" stop-color="#be3f45"/><stop offset="1" stop-color="#be3f45" stop-opacity="0"/></linearGradient><radialGradient id="g" cx="150.18" cy="282.218" gradientTransform="matrix(1.00392 0 0 .4606 -27.924 153.332)" gradientUnits="userSpaceOnUse" r="101.228" xlink:href="#f"/><linearGradient id="h"><stop offset="0" stop-color="#ffe7a5"/><stop offset=".9655" stop-color="#ffbf5c"/></linearGradient><linearGradient id="i" gradientUnits="userSpaceOnUse" x1="115.55022288" x2="171.73962528" xlink:href="#h" y1="268.88892888" y2="394.01249808"/><linearGradient id="j" gradientUnits="userSpaceOnUse" x1="112.60672944" x2="137.22284784" xlink:href="#h" y1="260.0353584" y2="314.8493904"/><linearGradient id="k" gradientUnits="userSpaceOnUse" x1="117.3984396" x2="132.4221024" xlink:href="#h" y1="268.498404" y2="301.954038"/><linearGradient id="l" gradientTransform="matrix(.00753 -1.00392 1.00392 .00753 615.087 5447.115)" gradientUnits="userSpaceOnUse" x1="5103.918" x2="5112.068" y1="-253.348" y2="-185.926"><stop offset="0" stop-color="#cfffb4"/><stop offset="1" stop-color="#8ee388"/></linearGradient><linearGradient id="m" gradientTransform="matrix(.00753 -1.00392 1.00392 .00753 615.087 5447.115)" gradientUnits="userSpaceOnUse" x1="5100.716" x2="5146.169" y1="-224.273" y2="-316.32"><stop offset="0" stop-color="#8ee388" stop-opacity="0"/><stop offset="1" stop-color="#4b9345"/></linearGradient><linearGradient id="n" gradientUnits="userSpaceOnUse" x1="243.6664776" x2="272.85243984" xlink:href="#a" y1="408.81529848" y2="530.66809632"/><linearGradient id="o" gradientUnits="userSpaceOnUse" x1="370.51277352" x2="179.8221852" xlink:href="#c" y1="408.29526792" y2="451.18774992"/><linearGradient id="p" gradientUnits="userSpaceOnUse" x1="274.14850056" x2="-225.64403616" xlink:href="#c" y1="416.59266672" y2="529.01263224"/><radialGradient id="q" cx="284.965" cy="313.638" gradientTransform="matrix(1.00392 0 0 .4606 -27.924 170.403)" gradientUnits="userSpaceOnUse" r="155.661" xlink:href="#f"/><linearGradient id="r" gradientUnits="userSpaceOnUse" x1="246.94026072" x2="333.34564728" xlink:href="#h" y1="292.67078976" y2="485.07707736"/><linearGradient id="s" gradientUnits="userSpaceOnUse" x1="242.41458936" x2="280.26739296" xlink:href="#h" y1="279.05562672" y2="363.34575384"/><linearGradient id="t" gradientUnits="userSpaceOnUse" x1="249.78336216" x2="272.88657312" xlink:href="#h" y1="292.0704456" y2="343.51532208"/><linearGradient id="u" gradientUnits="userSpaceOnUse" x1="307.45957008" x2="273.37548216" y1="346.7389092" y2="227.08268832"><stop offset="0" stop-color="#ff5d00" stop-opacity="0"/><stop offset="1" stop-color="#d54003"/></linearGradient><linearGradient id="v" gradientTransform="matrix(-.70987 .70987 -.70987 -.70987 516.006 218.869)" gradientUnits="userSpaceOnUse" x1="135.523" x2="154.185" y1="256.821" y2="256.821"><stop offset="0" stop-color="#827a74"/><stop offset="1" stop-color="#605b55"/></linearGradient><linearGradient id="w" gradientUnits="userSpaceOnUse" x1="363.7152312" x2="345.51114984" y1="249.83352336" y2="231.629442"><stop offset="0" stop-color="#605b55" stop-opacity="0"/><stop offset="1" stop-color="#4c4843"/></linearGradient><linearGradient id="x" gradientUnits="userSpaceOnUse" x1="269.02850856" x2="269.02850856" y1="234.12016752" y2="326.82314424"><stop offset="0" stop-color="#ff4c54"/><stop offset="1" stop-color="#be3f45"/></linearGradient><linearGradient id="y" gradientUnits="userSpaceOnUse" x1="168.37548936" x2="299.655096" y1="268.5887568" y2="268.5887568"><stop offset="0" stop-color="#f2f2f2"/><stop offset="1" stop-color="#c3c3c3"/></linearGradient><linearGradient id="z" gradientUnits="userSpaceOnUse" x1="258.87486168" x2="258.87486168" xlink:href="#h" y1="288.0798636" y2="317.86918176"/><path d="m46.96875 290.167969s.070312 28.023437-5.183594 43.421875c-3.027344 8.890625-22.386718 24.433594-38.210937 35.980468-6.875 5.019532-3.144531 15.886719 5.363281 15.632813 13.585938-.40625 31.027344-2.121094 49.085938-7.082031 5.804687-1.59375 11.660156 2.363281 12.375 8.34375.21875 1.84375.355468 3.972656.359374 6.425781.03125 13.390625 13.789063 22.386719 26.082032 17.085937 8.121094-3.5 17.1875-8.285156 26.21875-14.785156 6.660156-4.796875 15.289062-5.910156 22.988281-3.074218 12.175781 4.488281 29.996094 10.476562 39.941406 11.125 16.101563 1.046874 3.5-18.203126 3.5-18.203126s27.648438 16.101563 49.699219 9.800782c22.050781-6.296875-22.449219-32.152344-27.648438-52.5-8.050781-31.5-8.292968-52.171875-8.292968-52.171875zm0 0" fill="url(#b)"/><path d="m203.242188 290.167969h-36.851563v59.03125c0 16.507812 23.097656 35.839843 23.097656 35.839843s27.648438 16.101563 49.699219 9.800782c22.050781-6.300782-22.449219-32.152344-27.648438-52.5-8.050781-31.5-8.296874-52.171875-8.296874-52.171875zm0 0" fill="url(#d)"/><path d="m70.398438 386.460938c.21875 1.84375.355468 3.976562.359374 6.429687.03125 13.390625 13.789063 22.386719 26.082032 17.085937 8.121094-3.5 17.1875-8.289062 26.21875-14.789062 6.660156-4.792969 15.289062-5.90625 22.988281-3.070312 12.175781 4.484374 29.996094 10.476562 39.941406 11.125 16.101563 1.046874 3.5-18.203126 3.5-18.203126s27.648438 16.101563 49.699219 9.800782c22.050781-6.296875-22.449219-32.152344-27.648438-52.5-8.050781-31.5-8.292968-52.171875-8.292968-52.171875h-114.210938c-.128906 20.652343-.878906 54.035156-4.269531 64.203125-5.023437 15.074218-26.742187 23.75-26.742187 23.75 5.804687-1.59375 11.660156 2.363281 12.375 8.339844zm0 0" fill="url(#e)"/><path d="m125.105469 355.9375c33.210937 0 63.8125-3.28125 88.289062-8.804688-.820312-1.621093-1.457031-3.226562-1.855469-4.792968-8.050781-31.5-8.296874-52.171875-8.296874-52.171875h-156.273438s.070312 28.023437-5.183594 43.421875c-1.152344 3.390625-4.6875 7.75-9.488281 12.480468 25.171875 6.160157 57.519531 9.867188 92.808594 9.867188zm0 0" fill="url(#g)"/><path d="m203.242188 290.167969c0-12.707031-34.980469-23.007813-78.136719-23.007813s-78.136719 10.300782-78.136719 23.007813c0 12.710937 34.980469 23.011719 78.136719 23.011719s78.136719-10.300782 78.136719-23.011719zm0 0" fill="url(#i)"/><path d="m187.433594 287.355469c-.027344 1.449219-.835938 2.738281-1.816406 3.714843-.996094.996094-2.171876 1.765626-3.371094 2.472657-2.421875 1.390625-5.03125 2.402343-7.660156 3.316406-5.277344 1.789063-10.730469 3.023437-16.210938 4-10.972656 1.960937-22.144531 2.65625-33.269531 2.558594-11.128907-.167969-22.242188-1.109375-33.21875-2.863281-2.75-.425782-5.480469-.949219-8.199219-1.523438-2.722656-.582031-5.425781-1.253906-8.085938-2.085938-2.660156-.835937-5.285156-1.816406-7.78125-3.144531-1.230468-.683593-2.441406-1.449219-3.492187-2.464843-1.03125-.992188-1.949219-2.355469-2-3.980469.007813-1.625.894531-3.035157 1.910156-4.070313 1.035157-1.058594 2.234375-1.871094 3.457031-2.597656 2.472657-1.429688 5.101563-2.472656 7.769532-3.347656 5.335937-1.742188 10.8125-2.925782 16.324218-3.796875 11.023438-1.757813 22.175782-2.488281 33.316407-2.484375 11.132812.066406 22.300781.773437 33.273437 2.765625 5.480469.988281 10.929688 2.222656 16.210938 4.015625 2.628906.910156 5.238281 1.925781 7.660156 3.320312 1.199219.707032 2.378906 1.480469 3.371094 2.476563.980468.980469 1.789062 2.273437 1.8125 3.71875zm-.203125 0c-.035157-1.367188-.8125-2.597657-1.785157-3.546875-.976562-.957032-2.136718-1.722656-3.34375-2.390625-2.429687-1.300781-5.03125-2.28125-7.683593-3.042969-5.308594-1.542969-10.765625-2.53125-16.242188-3.234375-5.480469-.707031-10.992187-1.152344-16.503906-1.476563-5.515625-.316406-11.039063-.46875-16.566406-.445312-5.523438.011719-11.046875.179688-16.558594.523438-5.511719.339843-11.011719.875-16.464844 1.679687-5.449219.816406-10.878906 1.863281-16.128906 3.449219-2.617187.804687-5.191406 1.753906-7.578125 3.019531-1.175781.648437-2.316406 1.375-3.253906 2.273437-.933594.890626-1.636719 2-1.683594 3.191407.003906 1.195312.671875 2.351562 1.59375 3.285156.921875.941406 2.050781 1.714844 3.21875 2.40625 1.175781.691406 2.425781 1.261719 3.683594 1.8125 1.277344.511719 2.570312.988281 3.882812 1.410156 5.257813 1.6875 10.695313 2.835938 16.167969 3.636719 5.480469.8125 11.003906 1.285156 16.53125 1.554688 5.527344.289062 11.0625.339843 16.589844.273437 11.058593-.148437 22.109375-.738281 33.074219-2.128906 5.480468-.714844 10.933593-1.703125 16.246093-3.25 2.652344-.765625 5.25-1.75 7.683594-3.050781 1.203125-.667969 2.363281-1.4375 3.34375-2.398438.96875-.949219 1.742187-2.179688 1.777344-3.550781zm0 0" fill="url(#j)"/><path d="m163.691406 285.136719c-.011718.453125-.191406.878906-.441406 1.238281-.265625.34375-.578125.648438-.917969.90625-.683593.523438-1.445312.917969-2.214843 1.273438-1.539063.726562-3.167969 1.222656-4.789063 1.71875-3.261719.933593-6.589844 1.640624-9.941406 2.1875-6.699219 1.121093-13.503907 1.492187-20.28125 1.382812-3.390625-.085938-6.773438-.269531-10.152344-.554688-3.375-.292968-6.738281-.679687-10.089844-1.132812-3.355469-.457031-6.695312-1.007812-10-1.804688-1.648437-.414062-3.292969-.867187-4.890625-1.527343-.796875-.328125-1.582031-.714844-2.320312-1.242188-.371094-.265625-.71875-.582031-1.027344-.964843-.296875-.402344-.53125-.90625-.558594-1.480469.003906-.574219.222656-1.097657.503906-1.515625.300782-.40625.640626-.746094 1.003907-1.03125.722656-.570313 1.503906-1.003906 2.296875-1.375 1.582031-.757813 3.226562-1.277344 4.875-1.738282 3.308594-.90625 6.664062-1.523437 10.035156-1.976562 6.746094-.914062 13.535156-1.320312 20.324219-1.304688 6.78125.054688 13.582031.4375 20.285156 1.585938 3.347656.558594 6.675781 1.269531 9.9375 2.207031 1.625.492188 3.25.992188 4.792969 1.722657.769531.355468 1.53125.753906 2.210937 1.277343.34375.261719.65625.566407.921875.914063.25.359375.425782.785156.4375 1.234375zm-.203125 0c-.035156-.808594-.640625-1.472657-1.300781-1.949219-.667969-.492188-1.414062-.886719-2.1875-1.203125-1.546875-.640625-3.167969-1.097656-4.808594-1.460937-3.277344-.730469-6.625-1.117188-9.96875-1.417969-3.34375-.28125-6.699218-.441407-10.050781-.582031-3.355469-.121094-6.710937-.203126-10.066406-.171876-6.707031.042969-13.425781.273438-20.082031 1.039063-3.324219.398437-6.636719.882813-9.875 1.640625-1.609376.398438-3.214844.835938-4.71875 1.449219-.75.300781-1.476563.660156-2.101563 1.101562-.316406.21875-.585937.46875-.804687.730469-.203126.269531-.320313.546875-.347657.824219.003907.277343.105469.574219.292969.863281.210938.28125.472656.554688.78125.796875.613281.484375 1.332031.886719 2.078125 1.234375 1.488281.710938 3.09375 1.214844 4.707031 1.65625 3.238282.871094 6.570313 1.421875 9.910156 1.820312 1.671876.1875 3.347657.332032 5.027344.445313 1.679688.09375 3.363282.171875 5.042969.210937 3.363281.09375 6.730469.070313 10.089844-.003906 6.71875-.132812 13.425781-.402344 20.121093-.957031 3.34375-.3125 6.691407-.699219 9.96875-1.433594 1.640626-.363281 3.261719-.824219 4.808594-1.46875.773438-.316406 1.519532-.710937 2.183594-1.203125.335938-.246094.636719-.53125.886719-.851562.238281-.332032.398437-.707032.414062-1.109375zm0 0" fill="url(#k)"/><path d="m455.992188 301.464844c-4.898438 11.425781-25.390626 50.296875-73.652344 38.875-.734375-.171875-1.207032-.890625-1.082032-1.636719.449219-2.621094 1.738282-8.851563 4.800782-16.222656 7.386718-17.769531 26.128906-28 45.085937-24.683594 6.605469 1.15625 14.453125 1.792969 22.894531.976563 1.460938-.140626 2.53125 1.34375 1.953126 2.691406zm0 0" fill="url(#l)"/><path d="m455.992188 301.464844c.253906-.59375.1875-1.214844-.089844-1.710938-11.332032 6.363282-27.847656 11.160156-43.289063 15.246094-17.40625 4.609375-28.539062 20.121094-31.308593 24.359375.144531.472656.523437.859375 1.035156.980469 48.261718 11.421875 68.753906-27.449219 73.652344-38.875zm0 0" fill="url(#m)"/><path d="m141.480469 325.394531s.105469 43.089844-7.96875 66.769531c-4.660157 13.671876-34.429688 37.570313-58.761719 55.328126-10.570312 7.714843-4.832031 24.429687 8.25 24.039062 20.890625-.625 47.714844-3.265625 75.480469-10.890625 8.925781-2.453125 17.933593 3.636719 19.027343 12.828125.335938 2.835938.546876 6.113281.554688 9.886719.046875 20.589843 21.199219 34.421875 40.109375 26.269531 12.484375-5.378906 26.429687-12.742188 40.316406-22.738281 10.242188-7.371094 23.507813-9.085938 35.351563-4.722657 18.71875 6.898438 46.125 16.105469 61.414062 17.105469 24.757813 1.613281 5.382813-27.988281 5.382813-27.988281s42.519531 24.757812 76.425781 15.070312-34.523438-49.445312-42.515625-80.730468c-12.378906-48.4375-12.753906-80.226563-12.753906-80.226563zm0 0" fill="url(#n)"/><path d="m381.792969 325.394531h-56.671875v90.777344c0 25.382813 35.515625 55.109375 35.515625 55.109375s42.519531 24.757812 76.425781 15.070312-34.523438-49.445312-42.519531-80.730468c-12.378907-48.441406-12.75-80.226563-12.75-80.226563zm0 0" fill="url(#o)"/><path d="m177.507812 473.46875c.335938 2.835938.546876 6.109375.554688 9.886719.046875 20.585937 21.199219 34.421875 40.109375 26.269531 12.484375-5.382812 26.429687-12.742188 40.316406-22.738281 10.242188-7.371094 23.507813-9.085938 35.351563-4.722657 18.71875 6.894532 46.125 16.105469 61.414062 17.101563 24.757813 1.617187 5.382813-27.984375 5.382813-27.984375s42.519531 24.757812 76.425781 15.070312-34.523438-49.445312-42.515625-80.730468c-12.378906-48.441406-12.753906-80.226563-12.753906-80.226563h-175.621094c-.203125 31.757813-1.355469 83.085938-6.566406 98.722657-7.726563 23.179687-41.125 36.523437-41.125 36.523437 8.925781-2.453125 17.933593 3.636719 19.027343 12.828125zm0 0" fill="url(#p)"/><path d="m261.636719 426.527344c51.070312 0 98.128906-5.046875 135.761719-13.539063-1.257813-2.492187-2.238282-4.957031-2.855469-7.367187-12.378907-48.441406-12.75-80.226563-12.75-80.226563h-240.3125s.105469 43.089844-7.96875 66.769531c-1.773438 5.214844-7.210938 11.914063-14.59375 19.195313 38.710937 9.472656 88.453125 15.167969 142.71875 15.167969zm0 0" fill="url(#q)"/><path d="m381.792969 325.394531c0-19.542969-53.796875-35.382812-120.15625-35.382812s-120.15625 15.839843-120.15625 35.382812c0 19.539063 53.796875 35.382813 120.15625 35.382813s120.15625-15.84375 120.15625-35.382813zm0 0" fill="url(#r)"/><path d="m357.476562 321.070312c-.039062 2.222657-1.28125 4.207032-2.792968 5.710938-1.527344 1.53125-3.339844 2.714844-5.183594 3.804688-3.726562 2.136718-7.738281 3.691406-11.78125 5.097656-8.117188 2.75-16.496094 4.648437-24.925781 6.148437-16.875 3.015625-34.046875 4.085938-51.15625 3.933594-17.117188-.257813-34.203125-1.703125-51.085938-4.402344-4.226562-.652343-8.425781-1.457031-12.609375-2.34375-4.183594-.890625-8.339844-1.925781-12.433594-3.203125-4.085937-1.289062-8.128906-2.792968-11.960937-4.835937-1.894531-1.050781-3.753906-2.230469-5.371094-3.789063-1.589843-1.527344-2.996093-3.628906-3.078125-6.125.011719-2.496094 1.375-4.667968 2.941406-6.261718 1.589844-1.625 3.433594-2.871094 5.316407-3.992188 3.800781-2.195312 7.847656-3.800781 11.945312-5.148438 8.207031-2.679687 16.628907-4.496093 25.101563-5.839843 16.953125-2.699219 34.105468-3.824219 51.234375-3.820313 17.121093.105469 34.289062 1.195313 51.164062 4.253906 8.429688 1.515626 16.808594 3.417969 24.925781 6.171876 4.042969 1.402343 8.054688 2.964843 11.78125 5.105468 1.84375 1.089844 3.65625 2.277344 5.183594 3.8125 1.507813 1.507813 2.75 3.496094 2.785156 5.722656zm-.308593 0c-.058594-2.105468-1.253907-3.996093-2.746094-5.453124-1.507813-1.472657-3.289063-2.652344-5.140625-3.675782-3.742188-2-7.734375-3.507812-11.816406-4.683594-8.164063-2.375-16.550782-3.894531-24.976563-4.972656-8.429687-1.085937-16.902343-1.769531-25.382812-2.273437-8.480469-.480469-16.976563-.722657-25.46875-.6875-8.496094.023437-16.992188.28125-25.464844.8125-8.472656.519531-16.933594 1.339843-25.320313 2.582031-8.382812 1.253906-16.726562 2.859375-24.800781 5.300781-4.027343 1.238281-7.988281 2.699219-11.65625 4.644531-1.808593.996094-3.558593 2.113282-5.003906 3.496094-1.4375 1.371094-2.511719 3.074219-2.589844 4.910156.007813 1.832032 1.039063 3.613282 2.453125 5.046876 1.414063 1.449218 3.152344 2.632812 4.949219 3.699218 1.804687 1.066406 3.730469 1.941406 5.667969 2.785156 1.960937.792969 3.949218 1.519532 5.972656 2.171876 8.082031 2.59375 16.441406 4.359374 24.859375 5.59375 8.425781 1.246093 16.917969 1.972656 25.417969 2.386718 8.5.445313 17.011718.523438 25.515625.421875 17.003906-.226562 33.992187-1.136719 50.859375-3.277343 8.425781-1.097657 16.8125-2.621094 24.976562-4.992188 4.082032-1.179688 8.078125-2.691406 11.820313-4.695312 1.851562-1.023438 3.632812-2.207032 5.140625-3.683594 1.488281-1.457032 2.679687-3.355469 2.734375-5.457032zm0 0" fill="url(#s)"/><path d="m320.96875 317.660156c-.019531.695313-.289062 1.34375-.675781 1.898438-.40625.53125-.886719.996094-1.414063 1.394531-1.050781.804687-2.222656 1.410156-3.40625 1.957031-2.367187 1.121094-4.871094 1.886719-7.367187 2.640625-5.015625 1.441407-10.128907 2.53125-15.28125 3.367188-10.304688 1.726562-20.769531 2.296875-31.1875 2.125-5.214844-.132813-10.417969-.414063-15.609375-.851563-5.191406-.449218-10.363282-1.042968-15.519532-1.742187-5.15625-.703125-10.296874-1.546875-15.375-2.769531-2.535156-.640626-5.0625-1.335938-7.519531-2.351563-1.230469-.503906-2.4375-1.097656-3.574219-1.914063-.566406-.40625-1.101562-.890624-1.578124-1.480468-.453126-.617188-.816407-1.394532-.855469-2.277344.007812-.878906.339843-1.683594.777343-2.332031.457032-.621094.984376-1.140625 1.539063-1.578125 1.117187-.882813 2.316406-1.546875 3.53125-2.117188 2.433594-1.164062 4.960937-1.964844 7.503906-2.671875 5.082031-1.394531 10.246094-2.339843 15.429688-3.042969 10.367187-1.40625 20.8125-2.027343 31.25-2.007812 10.429687.089844 20.886719.675781 31.191406 2.445312 5.152344.855469 10.269531 1.949219 15.285156 3.386719 2.496094.757813 4.996094 1.527344 7.367188 2.652344 1.183593.546875 2.355469 1.15625 3.402343 1.964844.527344.398437 1.007813.867187 1.414063 1.402343.382813.554688.65625 1.203126.671875 1.902344zm-.308594 0c-.054687-1.25-.988281-2.269531-2.003906-3.003906-1.027344-.753906-2.171875-1.359375-3.363281-1.84375-2.375-.988281-4.871094-1.691406-7.390625-2.25-5.042969-1.125-10.191406-1.71875-15.332032-2.179688-5.144531-.433593-10.304687-.679687-15.457031-.894531-5.15625-.183593-10.316406-.308593-15.476562-.261719-10.316407.0625-20.648438.421876-30.882813 1.59375-5.109375.613282-10.207031 1.355469-15.183594 2.527344-2.472656.609375-4.941406 1.28125-7.253906 2.222656-1.160156.464844-2.277344 1.019532-3.238281 1.699219-.480469.335938-.894531.71875-1.234375 1.125-.308594.414063-.496094.835938-.535156 1.265625.007812.429688.164062.878906.453125 1.324219.324219.433594.726562.851563 1.199219 1.222656.941406.75 2.046874 1.367188 3.195312 1.898438 2.289062 1.097656 4.757812 1.871093 7.238281 2.550781 4.980469 1.339844 10.101563 2.183594 15.238281 2.796875 2.570313.289063 5.148438.515625 7.734376.683594 2.582031.144531 5.167968.265625 7.753906.324219 5.171875.144531 10.347656.109374 15.515625-.003907 10.332031-.207031 20.644531-.621093 30.941406-1.472656 5.140625-.476563 10.285156-1.074219 15.328125-2.203125 2.519531-.558594 5.015625-1.265625 7.394531-2.257812 1.191407-.484376 2.332031-1.097657 3.359375-1.851563.511719-.378906.972656-.816406 1.363282-1.308594.363281-.511719.609374-1.089843.636718-1.703125zm0 0" fill="url(#t)"/><path d="m381.792969 325.394531c0-19.542969-53.796875-35.386719-120.15625-35.386719-15.359375 0-30.042969.851563-43.542969 2.398438v24.402344l43.964844 43.964844c66.164062-.066407 119.734375-15.878907 119.734375-35.378907zm0 0" fill="url(#u)"/><path d="m173.324219 93.214844c40.703125 34.433594 134.9375 115.996094 170.9375 162.746094 4.871093 6.324218 14.171875 6.953124 19.816406 1.308593l7.070313-7.070312c5.15625-5.15625 5.15625-13.515625 0-18.671875l-224.292969-224.292969c-9.648438-9.644531-25.285157-9.644531-34.933594 0-9.648437 9.648437-9.648437 25.289063 0 34.933594l17.878906 17.878906c4.121094 4.121094 8.640625 7.808594 13.488281 11.007813 10.394532 6.863281 20.523438 14.113281 30.035157 22.160156zm0 0" fill="url(#v)"/><path d="m371.148438 250.199219c5.15625-5.15625 5.15625-13.515625 0-18.671875l-15.074219-15.074219-24.375 24.378906c4.699219 5.339844 8.933593 10.414063 12.5625 15.128907 4.871093 6.324218 14.171875 6.949218 19.816406 1.308593zm0 0" fill="url(#w)"/><path d="m364.5 224.878906c-2.230469 3.652344-5.164062 6.949219-8.761719 9.707032-5.601562 4.28125-11.015625 9.011718-16.199219 14.195312-.1875.1875-.375.375-.5625.570312-19.949218 20.140626-33.191406 43.847657-39.292968 67.457032v.011718c-.007813 0-.019532-.011718-.027344-.011718h-81.5625c-2.605469-2.289063-5.164062-4.6875-7.664062-7.183594-23.023438-23.023438-37.230469-50.78125-41.957032-77.757812-.695312-3.992188 2.414063-7.601563 6.480469-7.640626.507813-.011718 1.015625-.011718 1.523437-.03125.300782 0 .601563-.011718.914063-.023437.351563-.007813.691406-.03125 1.046875-.039063.578125-.023437 1.160156-.054687 1.738281-.09375 2.925781-.164062 5.859375-.457031 8.816407-.859374.589843-.074219 1.183593-.15625 1.773437-.261719.589844-.082031 1.183594-.175781 1.773437-.277344 1.191407-.1875 2.375-.40625 3.566407-.644531.550781-.101563 1.109375-.21875 1.660156-.339844.640625-.136719 1.285156-.28125 1.917969-.417969 1.183594-.269531 2.363281-.558593 3.554687-.859375 23.84375-6.148437 47.777344-19.589844 68.039063-39.863281.105468-.101563.210937-.207031.300781-.308594 5.0625-5.082031 9.699219-10.402343 13.898437-15.878906 2.757813-3.597656 6.054688-6.53125 9.707032-8.761719 12.277344-7.5 28.425781-7.019531 40.402344 2.476563 4.8125 3.808593 9.476562 7.964843 13.96875 12.457031 4.488281 4.488281 8.648437 9.167969 12.464843 13.976562 9.5 11.96875 9.976563 28.113282 2.480469 40.402344zm0 0" fill="url(#x)"/><path d="m299.65625 316.808594h-81.5625c-2.601562-2.289063-5.164062-4.6875-7.664062-7.183594-23.023438-23.023438-37.226563-50.78125-41.957032-77.757812-.695312-3.992188 2.414063-7.601563 6.480469-7.640626.507813-.011718 1.015625-.011718 1.523437-.03125.300782 0 .601563-.011718.914063-.023437.351563-.007813.695313-.03125 1.046875-.039063.578125-.03125 1.160156-.054687 1.742188-.09375 2.921874-.164062 5.859374-.457031 8.8125-.859374.59375-.085938 1.183593-.167969 1.773437-.261719.589844-.082031 1.183594-.175781 1.773437-.277344 1.191407-.199219 2.375-.414063 3.566407-.644531.550781-.113282 1.109375-.226563 1.660156-.339844.640625-.136719 1.285156-.28125 1.917969-.417969 1.183594-.277343 2.375-.558593 3.558594-.871093v.011718c6.957031 20.875 19.453124 41.449219 37.21875 59.214844 17.761718 17.761719 38.339843 30.257812 59.195312 37.214844zm0 0" fill="url(#y)"/><path d="m189.359375 316.65625c5.792969-.59375 11.585937-.855469 17.378906-1.050781 5.792969-.171875 11.585938-.269531 17.378907-.089844 5.792968.195313 11.585937.703125 17.378906.789063 5.792968.105468 11.585937-.054688 17.378906-.347657 5.792969-.304687 11.585938-.53125 17.378906-.617187 5.792969-.128906 11.585938-.21875 17.378906-.1875 11.585938.140625 23.171876.5 34.757813 1.503906v.308594c-11.585937 1.003906-23.171875 1.363281-34.757813 1.503906-5.792968.03125-11.585937-.058594-17.378906-.1875-5.792968-.085938-11.585937-.3125-17.378906-.617188-5.792969-.292968-11.585938-.453124-17.378906-.347656-5.792969.085938-11.585938.59375-17.378906.789063-5.792969.179687-11.585938.082031-17.378907-.089844-5.792969-.195313-11.585937-.457031-17.378906-1.050781zm0 0" fill="url(#z)"/></svg>