<svg height="512" viewBox="0 0 64 64" width="512" xmlns="http://www.w3.org/2000/svg"><g id="Flat"><g id="Stroke_copy_2" data-name="Stroke copy 2"><g><g><path d="m47.685 3 3.09 4.489 5.139-1.815-.139 5.448 5.225 1.552-3.315 4.326 3.315 4.326-5.225 1.552.139 5.448-5.139-1.815-3.09 4.489-3.09-4.489-5.139 1.815.139-5.448-5.225-1.552 3.315-4.326-3.315-4.326 5.225-1.552-.139-5.448 5.139 1.815z" fill="#f9e109"/><path d="m45.374 24.115-3.844 1.358.104-4.076-3.909-1.161 2.48-3.236-2.48-3.236 3.909-1.161-.104-4.076 3.844 1.358 2.311-3.358 2.312 3.358 3.844-1.358-.104 4.076 3.908 1.161-2.479 3.236 2.479 3.236-3.908 1.161.104 4.076-3.844-1.358-2.312 3.358z" fill="#fcbc04"/><circle cx="47.685" cy="17" fill="#f8664f" r="5"/></g><path d="m49 26a23 23 0 1 0 -43 11.353v17.647a3 3 0 0 0 6 0v-4a3 3 0 0 1 6 0v2a3 3 0 0 0 6 0 3 3 0 0 1 6 0v5a3 3 0 0 0 6 0v-9a3 3 0 0 1 6 0 3 3 0 0 0 6 0v-16.28a22.98 22.98 0 0 0 1-6.72z" fill="#57b7eb"/><path d="m34 36a23 23 0 0 1 -22.479-27.866 22.987 22.987 0 0 0 -5.521 29.219v17.647a3 3 0 0 0 6 0v-4a3 3 0 0 1 6 0v2a3 3 0 0 0 6 0 3 3 0 0 1 6 0v5a3 3 0 0 0 6 0v-9a3 3 0 0 1 6 0 3 3 0 0 0 6 0v-16.28c.185-.606.338-1.224.473-1.849a22.9 22.9 0 0 1 -14.473 5.129z" fill="#4891d3"/><path d="m26 23-4 1v-6l-8 1 5-6-7.269-5.032a22.985 22.985 0 0 0 -5.731 29.385v17.477a3.114 3.114 0 0 0 2.839 3.17 3 3 0 0 0 3.161-3v-10.858a6.862 6.862 0 0 1 6.105-6.82 2.031 2.031 0 0 0 1.595-2.922 2.032 2.032 0 0 1 2.069-2.924l4.231.524z" fill="#c4f236"/><path d="m38.824 6.905-6.824 4.095 5 3-4 4v5l6 1-3 6 6 3v16a3 3 0 0 0 6 0v-16.28a23.02 23.02 0 0 0 -9.176-25.815z" fill="#c4f236"/><path d="m27 13 5.223-9.141a22.978 22.978 0 0 0 -12.63.052l3.407 4.089v4z" fill="#c4f236"/><rect fill="#57b7eb" height="6" rx="2" width="4" x="38" y="15"/><path d="m11 13a23.1 23.1 0 0 1 .517-4.853 22.974 22.974 0 0 0 -5.517 29.206v17.477a3.114 3.114 0 0 0 2.839 3.17 3 3 0 0 0 3.161-3v-10.858a6.862 6.862 0 0 1 6.105-6.82 2.031 2.031 0 0 0 1.595-2.922 2.027 2.027 0 0 1 .9-2.713 22.963 22.963 0 0 1 -9.6-18.687z" fill="#a1d51c"/><path d="m8 26v4.893a2.075 2.075 0 0 0 1.664 2.08 2 2 0 0 0 2.336-1.973v-4a2 2 0 0 0 2.336 1.973 2.075 2.075 0 0 0 1.664-2.08v-.893a2 2 0 0 0 -2-2h-4a2 2 0 0 0 -2 2z" fill="#57b7eb"/><path d="m45 45v-8.439a2.171 2.171 0 0 0 -2.969-2l-.031.007v14.262a3.114 3.114 0 0 0 2.839 3.17 3 3 0 0 0 3.161-3v-.141a3.992 3.992 0 0 1 -3-3.859z" fill="#a1d51c"/><path d="m33 54v-10.439a2.171 2.171 0 0 0 -2.969-2l-.031.007v16.262a3.114 3.114 0 0 0 2.839 3.17 3 3 0 0 0 3.161-3v-.141a3.992 3.992 0 0 1 -3-3.859z" fill="#2d72bc"/><path d="m21 49v-6.439a2.171 2.171 0 0 0 -2.969-2l-.031.007v12.262a3.114 3.114 0 0 0 2.839 3.17 3 3 0 0 0 3.161-3v-.141a3.992 3.992 0 0 1 -3-3.859z" fill="#2d72bc"/><path d="m9 51v-11.439a2.171 2.171 0 0 0 -2.969-2l-.031.007v17.262a3.114 3.114 0 0 0 2.839 3.17 3 3 0 0 0 3.161-3v-.141a3.992 3.992 0 0 1 -3-3.859z" fill="#7ab92d"/><path d="m15.973 27.267a23.028 23.028 0 0 1 -2.164-3.267h-3.809a2 2 0 0 0 -2 2v4.893a2.075 2.075 0 0 0 1.664 2.08 2 2 0 0 0 2.336-1.973v-4a2 2 0 0 0 3.973.267z" fill="#4891d3"/><path d="m10 30v-6a2 2 0 0 0 -2 2v4.872a2.089 2.089 0 0 0 1.856 2.123 1.989 1.989 0 0 0 1.881-1.022 1.993 1.993 0 0 1 -1.737-1.973z" fill="#2d72bc"/><path d="m38 43a1 1 0 0 1 -1-1v-6a1 1 0 0 1 2 0v6a1 1 0 0 1 -1 1z" fill="#2d72bc"/><path d="m24 46a1 1 0 0 1 -1-1v-6a1 1 0 0 1 2 0v6a1 1 0 0 1 -1 1z" fill="#2d72bc"/><g fill="#4891d3"><path d="m34 39a1 1 0 0 1 -1-1v-4a1 1 0 0 1 2 0v4a1 1 0 0 1 -1 1z"/><path d="m30 38a1 1 0 0 1 -1-1v-6a1 1 0 0 1 2 0v6a1 1 0 0 1 -1 1z"/><path d="m28 21a1 1 0 0 1 -1-1v-4a1 1 0 0 1 2 0v4a1 1 0 0 1 -1 1z"/></g><path d="m44 31a1 1 0 0 1 -1-1v-5a1 1 0 0 1 2 0v5a1 1 0 0 1 -1 1z" fill="#57b7eb"/><path d="m34 39a1 1 0 0 0 1-1v-2.044c-.333.015-.663.044-1 .044s-.668-.011-1-.025v2.025a1 1 0 0 0 1 1z" fill="#2d72bc"/><path d="m30 38a1 1 0 0 0 1-1v-1.2q-1.014-.132-2-.35v1.55a1 1 0 0 0 1 1z" fill="#2d72bc"/><path d="m40 17a1.994 1.994 0 0 0 -1-1.723 1.994 1.994 0 0 0 -1 1.723v1.893c0 .036.007.071.009.107h-.009a2 2 0 0 0 4 0 2 2 0 0 1 -2-2z" fill="#4891d3"/></g></g></g></svg>