<svg id="flat" height="512" viewBox="0 0 512 512" width="512" xmlns="http://www.w3.org/2000/svg"><circle cx="72" cy="104" fill="#b66514" r="24"/><path d="m68 128v-16a16 16 0 0 1 16-16 16 16 0 0 1 16 16v16z" fill="#c47220"/><path d="m120 400 24 24v8h-120v-8l24-24z" fill="#d1e4ff"/><path d="m112 272h8a24 24 0 0 0 24-24v-16h-32z" fill="#ffceb6"/><path d="m56 272h-8a24 24 0 0 1 -24-24v-16h32z" fill="#ffceb6"/><path d="m144 232v-64a24 24 0 0 0 -24-24h-72a24 24 0 0 0 -24 24v64z" fill="#ffa100"/><path d="m392 400h64l24 24v8h-112v-8z" fill="#d1e4ff"/><path d="m392 304h64v96h-64z" fill="#ffceb6"/><path d="m360 208v48a24 24 0 0 0 24 24h8v-72z" fill="#ffceb6"/><path d="m456 144a32 32 0 0 1 32 32v32h-32v24h-64v-24h-32v-32a32 32 0 0 1 32-32z" fill="#ffc431"/><path d="m440 128v-16a16 16 0 0 0 -16-16 16 16 0 0 0 -16 16v16z" fill="#c47220"/><path d="m208 248h96v152h-96z" fill="#718799"/><path d="m304 280h8a24 24 0 0 0 24-24v-16h-32z" fill="#ffceb6"/><path d="m208 280h-8a24 24 0 0 1 -24-24v-16h32z" fill="#ffceb6"/><path d="m176 240v-64a32 32 0 0 1 32-32h96a32 32 0 0 1 32 32v64h-32v8h-96v-8z" fill="#548aff"/><rect fill="#4976f2" height="64" rx="8" width="16" x="200" y="184"/><path d="m304 400 16 24v8h-128v-8l16-24z" fill="#d1e4ff"/><rect fill="#4976f2" height="64" rx="8" width="16" x="296" y="184"/><path d="m248 400h16v32h-16z" fill="#c5dafa"/><path d="m264 400h-16v-112a8 8 0 0 1 8-8 8 8 0 0 1 8 8z" fill="#62798c"/><path d="m84 152a16 16 0 0 1 -16-16v-8l8-8 24 8v8a16 16 0 0 1 -16 16z" fill="#ffceb6"/><path d="m280 164.68637-18.34326-18.34326a7.9998 7.9998 0 0 0 -11.31348 0l-18.34326 18.34326a7.99984 7.99984 0 0 0 11.31348 11.31348l4.68652-4.68653v36.68653a8 8 0 1 0 16 0v-36.68653l4.68652 4.68653a7.99984 7.99984 0 1 0 11.31348-11.31348z" fill="#4976f2"/><path d="m392 232h64v72h-64z" fill="#718799"/><path d="m416 400h16v32h-16z" fill="#c5dafa"/><path d="m416 304h16v96h-16z" fill="#ffbfa1"/><path d="m432 304h-16v-32a8 8 0 0 1 8-8 8 8 0 0 1 8 8z" fill="#62798c"/><path d="m424 152a16 16 0 0 1 -16-16v-8l16-8h16v16a16 16 0 0 1 -16 16z" fill="#ffceb6"/><path d="m112 232a8 8 0 0 1 -8-8v-16a8.1966 8.1966 0 0 1 2.43036-5.74445 19.65552 19.65552 0 0 0 2.3621-24.6452l-3.44876-5.17271a8 8 0 0 1 2.21857-11.09416 8 8 0 0 1 11.094 2.21881l3.44864 5.17306a35.7147 35.7147 0 0 1 -2.10491 42.33594v12.92871a8 8 0 0 1 -8 8z" fill="#f78e00"/><path d="m56 232-16 80h88l-16-80z" fill="#718799"/><path d="m56 232a8 8 0 0 1 -8-8v-12.92871a35.7147 35.7147 0 0 1 -2.105-42.33594l3.44859-5.173a8 8 0 0 1 11.09415-2.21883 8 8 0 0 1 2.21866 11.09414l-3.44892 5.17317a19.65489 19.65489 0 0 0 2.3621 24.64471 8.1966 8.1966 0 0 1 2.43042 5.74446v16a8 8 0 0 1 -8 8z" fill="#f78e00"/><path d="m48 312h72v88h-72z" fill="#ffceb6"/><path d="m76 400h16v32h-16z" fill="#c5dafa"/><path d="m76 312h16v88h-16z" fill="#ffbfa1"/><path d="m256 152a16 16 0 0 1 -16-16v-8l8-8h24v16a16 16 0 0 1 -16 16z" fill="#ffceb6"/><path d="m272 120 4.68629-4.68629a11.31372 11.31372 0 0 0 3.31371-8 11.31369 11.31369 0 0 0 -11.3137-11.31371h-12.6863a16 16 0 0 0 -16 16v16l8-8z" fill="#c47220"/><path d="m488 208v48a24 24 0 0 1 -24 24h-8v-72z" fill="#ffceb6"/><g fill="#ffb401"><rect height="48" rx="8" width="16" x="384" y="184"/><rect height="48" rx="8" width="16" x="448" y="184"/></g></svg>